<svg xmlns="http://www.w3.org/2000/svg" viewBox="0 0 168 168" fill="none">
  <circle cx="84" cy="84" r="84" fill="#26d864ff"/>
  <path fill="#000" d="M119.6 116.9c-1.6 2.6-5.1 3.4-7.7 1.8-21.3-12.9-48.1-15.8-79.6-8.6-3 .7-6-1.1-6.8-4.1s1.1-6 4.1-6.8c35-8 65.9-4.6 89.4 10.2 2.6 1.5 3.4 5 1.8 7.5zm10.8-24.5c-1.9 3.1-6 4.1-9.1 2.2-24.5-14.8-61.8-19.1-90.8-10.3-3.4 1-7.1-.9-8.1-4.4-1-3.4.9-7.1 4.4-8.1 33.8-9.9 76.4-5.1 104.9 11.9 3.1 1.8 4.1 5.9 2.2 8.7zm1-25.1C108.3 51.2 56.6 49.9 32.6 56.9c-3.9 1.1-8.1-.9-9.2-4.8-1.1-3.9.9-8.1 4.8-9.2 28.1-8.2 83-6.4 114.9 13.8 3.5 2.1 4.4 6.7 2.2 10.1-2.2 3.3-6.8 4.2-10.1 2.3z"/>
</svg>

